<?xml version="1.0" encoding="UTF-8"?>
<svg id="Layer_1" data-name="Layer 1" xmlns="http://www.w3.org/2000/svg" xmlns:xlink="http://www.w3.org/1999/xlink" viewBox="0 0 100 100">
  <defs>
    <style>
      .cls-1 {
        fill: url(#linear-gradient-2);
      }

      .cls-2 {
        fill: url(#linear-gradient-6);
      }

      .cls-3 {
        fill: url(#linear-gradient-5);
      }

      .cls-4 {
        fill: url(#linear-gradient-7);
      }

      .cls-5 {
        fill: url(#linear-gradient-9);
      }

      .cls-6 {
        fill: url(#linear-gradient-3);
      }

      .cls-7 {
        fill: url(#linear-gradient);
      }

      .cls-8 {
        fill: url(#linear-gradient-4);
      }

      .cls-9 {
        fill: url(#linear-gradient-8);
      }
    </style>
    <linearGradient id="linear-gradient" x1="44.53" y1="-.26" x2="43.37" y2="35.86" gradientUnits="userSpaceOnUse">
      <stop offset="0" stop-color="#b37e2b"/>
      <stop offset=".12" stop-color="#d1a24c"/>
      <stop offset=".25" stop-color="#ebc36a"/>
      <stop offset=".32" stop-color="#f6d076"/>
      <stop offset=".39" stop-color="#f1ca70"/>
      <stop offset=".48" stop-color="#e4ba62"/>
      <stop offset=".59" stop-color="#ce9f4a"/>
      <stop offset=".67" stop-color="#b98532"/>
      <stop offset="1" stop-color="#5a3a14"/>
    </linearGradient>
    <linearGradient id="linear-gradient-2" x1="50.47" y1="-.07" x2="49.32" y2="36.05" xlink:href="#linear-gradient"/>
    <linearGradient id="linear-gradient-3" x1="56.74" y1=".13" x2="55.58" y2="36.26" xlink:href="#linear-gradient"/>
    <linearGradient id="linear-gradient-4" x1="-3.29" y1="61.07" x2="125.3" y2="61.07" gradientUnits="userSpaceOnUse">
      <stop offset="0" stop-color="#b37e2b"/>
      <stop offset=".08" stop-color="#d1a24c"/>
      <stop offset=".16" stop-color="#ebc36a"/>
      <stop offset=".2" stop-color="#f6d076"/>
      <stop offset=".24" stop-color="#f1ca70"/>
      <stop offset=".29" stop-color="#e4ba62"/>
      <stop offset=".35" stop-color="#ce9f4a"/>
      <stop offset=".4" stop-color="#b98532"/>
      <stop offset=".6" stop-color="#f6d076"/>
      <stop offset=".64" stop-color="#f1ca70"/>
      <stop offset=".69" stop-color="#e4ba62"/>
      <stop offset=".75" stop-color="#ce9f4a"/>
      <stop offset=".8" stop-color="#b98532"/>
      <stop offset="1" stop-color="#5a3a14"/>
    </linearGradient>
    <linearGradient id="linear-gradient-5" x1="47.8" y1="9.7" x2="52.2" y2="9.7" xlink:href="#linear-gradient"/>
    <linearGradient id="linear-gradient-6" x1="35.68" y1="13" x2="39.35" y2="13" xlink:href="#linear-gradient"/>
    <linearGradient id="linear-gradient-7" x1="60.83" y1="13" x2="64.5" y2="13" xlink:href="#linear-gradient"/>
    <linearGradient id="linear-gradient-8" x1="42.19" y1="14.84" x2="45.31" y2="14.84" xlink:href="#linear-gradient"/>
    <linearGradient id="linear-gradient-9" x1="54.69" y1="14.84" x2="57.81" y2="14.84" xlink:href="#linear-gradient"/>
  </defs>
  <rect width="100" height="100"/>
  <g>
    <g>
      <path class="cls-7" d="M43.67,22.56c.51,.09,.63,.41,1.67-1.3,.87-1.45,.81-1.59,.46-2.14s-1.68-2.92-1.68-2.92h-.84s-1.1,2.34-1.36,2.92-.23,.9,0,1.26c.23,.36,1.24,2.1,1.75,2.19Z"/>
      <path class="cls-1" d="M61.87,14.75c-.06,.41-3.5,6.69-4.57,8.22s-1.24,1.56-2.98-1.22c-1.74-2.78-3.85-10.04-3.85-10.04l-.47-.32-.47,.32s-2.11,7.26-3.85,10.04c-1.74,2.78-1.91,2.75-2.98,1.22s-4.52-7.81-4.57-8.22-.9-.61-.78,.12c.23,1.45,1.65,11.2,3.18,14.5h18.94c1.53-3.3,2.95-13.05,3.18-14.5,.12-.72-.72-.52-.78-.12Z"/>
      <path class="cls-6" d="M56.33,22.56c.51-.09,1.52-1.82,1.75-2.19,.23-.36,.26-.68,0-1.26s-1.36-2.92-1.36-2.92h-.84s-1.33,2.37-1.68,2.92-.41,.69,.46,2.14c1.04,1.71,1.16,1.39,1.67,1.3Z"/>
    </g>
    <path class="cls-8" d="M87.04,76.71c-.64-1.22-8.02-18.91-8.44-19.97-.42-1.06-.74-2.17,.17-2.65,1.24-.52,3.13,1.01,4.41-.09,1.22-1.36-.81-2.89,0-3.46,.81-.56,.41-.62,.1-.87-.3-.25-.14-.19,.27-.43,.42-.25-.1-.77-.43-1.27-.33-.51-.62-.67-.14-.88s1.58-.56,1.55-1c-.03-.43-1.79-1.95-2.32-2.43-.52-.48-1-.9-.78-1.06,.56-.26,1.13-.91,.9-1.68-.35,1.31-1.39,1.2-1.62,.27-.23-.93-.54-2.2-1.66-3.24,2.08-.42,5.21,.5,5.21,.5,0,0-1.66-2.51-7.33-2.39-5.67,.12-8.72,5.63-10.92,10.84-2.2,5.21-6.98,19.33-7.73,21.53s-1.56,5.18-3.88,4.54c-2.43-1.1-2.36-3.12-1.51-6.44,.85-3.32,5.17-16.21,9.77-25.47,4.6-9.26,9.98-10.73,15.46-10.27-11.5-4.71-18.91,6.02-21.38,12.58-2.47,6.56-6.75,19.49-6.75,19.49,0,0-4.28-12.93-6.75-19.49-2.47-6.56-9.88-17.29-21.38-12.58,5.48-.46,10.86,1,15.46,10.27,4.6,9.26,8.93,22.15,9.77,25.47,.85,3.32,.92,5.34-1.51,6.44-2.32,.64-3.13-2.34-3.88-4.54s-5.53-16.32-7.73-21.53c-2.2-5.21-5.25-10.73-10.92-10.84-5.67-.12-7.33,2.39-7.33,2.39,0,0,3.13-.93,5.21-.5-1.12,1.04-1.43,2.32-1.66,3.24-.23,.93-1.27,1.04-1.62-.27-.23,.77,.33,1.42,.9,1.68,.22,.16-.26,.58-.78,1.06-.52,.48-2.29,2-2.32,2.43-.03,.43,1.07,.78,1.55,1s.19,.38-.14,.88c-.33,.51-.85,1.03-.43,1.27,.42,.25,.58,.19,.27,.43-.3,.25-.71,.3,.1,.87,.81,.56-1.22,2.1,0,3.46,1.29,1.1,3.17-.43,4.41,.09,.91,.48,.59,1.59,.17,2.65-.42,1.06-7.8,18.76-8.44,19.97-.64,1.22-1.85,2.62-5.11,2.56v.78h11.68v-.64s-3.76-.26-2.78-3.1c.98-2.84,8.82-23.05,9.59-24.79s1.74-2.7,2.86-2.7,1.81,.54,3.01,4.09c1.2,3.55,8.82,25.14,9.24,26.13s.48,1.16-.39,2.51-4.61,3.74-9.61,1.7l-.23,.58s6.95,3.97,12.79-.27c1.51,2.39,3.3,3.99,3.7,4.38-1.33,1.1-4.63,3.8-10.21,2.99l-.04,.64s5.95,2.88,12.52-1.49c6.57,4.36,12.52,1.49,12.52,1.49l-.04-.64c-5.58,.81-8.88-1.89-10.21-2.99,.41-.39,2.2-1.99,3.7-4.38,5.85,4.24,12.79,.27,12.79,.27l-.23-.58c-5,2.05-8.74-.35-9.61-1.7s-.81-1.52-.39-2.51,8.05-22.58,9.24-26.13c1.2-3.55,1.89-4.09,3.01-4.09s2.08,.96,2.86,2.7,8.61,21.95,9.59,24.79c.98,2.84-2.78,3.1-2.78,3.1v.64h11.68v-.78c-3.26,.06-4.47-1.35-5.11-2.56Zm-37.04,8.63s-1.33-2-3.19-4.8c2.6-2.81,3.19-5.85,3.19-5.85,0,0,.58,3.04,3.19,5.85-1.85,2.81-3.19,4.8-3.19,4.8Z"/>
    <circle class="cls-3" cx="50" cy="9.7" r="2.2"/>
    <circle class="cls-2" cx="37.51" cy="13" r="1.84"/>
    <circle class="cls-4" cx="62.66" cy="13" r="1.84"/>
    <circle class="cls-9" cx="43.75" cy="14.84" r="1.56"/>
    <circle class="cls-5" cx="56.25" cy="14.84" r="1.56"/>
  </g>
</svg>